<?xml version="1.0" encoding="UTF-8" standalone="no"?>
<svg
   width="436.07999pt"
   height="400.07999pt"
   viewBox="0 0 436.07999 400.07999"
   version="1.1"
   id="svg8"
   xmlns="http://www.w3.org/2000/svg"
   xmlns:svg="http://www.w3.org/2000/svg">
  <defs
     id="defs12" />
  <path
     fill-rule="nonzero"
     fill="rgb(100%, 100%, 100%)"
     fill-opacity="1"
     stroke-width="1"
     stroke-linecap="butt"
     stroke-linejoin="miter"
     stroke="rgb(100%, 100%, 100%)"
     stroke-opacity="1"
     stroke-miterlimit="4"
     d="M 484.997549 239.997462 C 484.997549 243.766134 484.909059 247.524394 484.721666 251.287861 C 484.539479 255.046121 484.263595 258.799177 483.894016 262.541822 C 483.524436 266.289672 483.06116 270.027111 482.509393 273.748935 C 481.957627 277.470758 481.317369 281.176965 480.578209 284.872762 C 479.844255 288.563353 479.021811 292.233123 478.105669 295.887277 C 477.194734 299.536226 476.190102 303.164353 475.096979 306.766453 C 474.003856 310.368554 472.822242 313.939422 471.557342 317.484264 C 470.287238 321.029105 468.933847 324.53751 467.491966 328.014682 C 466.050085 331.497059 464.524918 334.932588 462.916466 338.336886 C 461.308013 341.741183 459.616275 345.103837 457.841252 348.419644 C 456.066228 351.740655 454.213125 355.014819 452.276736 358.242134 C 450.340346 361.474655 448.331082 364.649917 446.238532 367.783536 C 444.145983 370.91195 441.980558 373.98831 439.737054 377.012617 C 437.493549 380.031719 435.182375 382.998767 432.79312 385.908556 C 430.403866 388.818345 427.946942 391.670875 425.417143 394.460942 C 422.892549 397.245802 420.295081 399.973405 417.635148 402.633337 C 414.975216 405.298475 412.247614 407.890738 409.457548 410.420537 C 406.667481 412.94513 403.820156 415.402054 400.910367 417.791309 C 398.000578 420.180563 395.03353 422.496943 392.009223 424.735242 C 388.984916 426.978747 385.908556 429.144172 382.780142 431.236721 C 379.651728 433.329271 376.471261 435.34374 373.243945 437.274924 C 370.01663 439.211313 366.742467 441.069622 363.421455 442.839441 C 360.100443 444.614464 356.737789 446.306202 353.338697 447.91986 C 349.9344 449.528312 346.493665 451.053479 343.016493 452.490155 C 339.539321 453.932036 336.030917 455.285426 332.486075 456.555531 C 328.941233 457.825636 325.36516 459.002044 321.763059 460.095167 C 318.160959 461.18829 314.538037 462.192922 310.883883 463.109064 C 307.234935 464.019999 303.559959 464.84765 299.869368 465.581604 C 296.178777 466.315558 292.472569 466.955815 288.745541 467.512787 C 285.023717 468.064554 281.291483 468.522625 277.543633 468.892204 C 273.795783 469.261784 270.042727 469.537668 266.284466 469.72506 C 262.526206 469.907247 258.762739 470.000944 254.999273 470.000944 C 251.235807 470.000944 247.472341 469.907247 243.71408 469.72506 C 239.955819 469.537668 236.202764 469.261784 232.454914 468.892204 C 228.712269 468.522625 224.974829 468.064554 221.253006 467.512787 C 217.531182 466.955815 213.81977 466.315558 210.129178 465.581604 C 206.438587 464.84765 202.763612 464.019999 199.114663 463.109064 C 195.465715 462.192922 191.837588 461.18829 188.235487 460.095167 C 184.633387 459.002044 181.057313 457.825636 177.517677 456.555531 C 173.972835 455.285426 170.459226 453.932036 166.982054 452.490155 C 163.504881 451.053479 160.064147 449.528312 156.65985 447.91986 C 153.260758 446.306202 149.898103 444.614464 146.577092 442.839441 C 143.261285 441.069622 139.987122 439.211313 136.754601 437.274924 C 133.527286 435.34374 130.346818 433.329271 127.218405 431.236721 C 124.089991 429.144172 121.01363 426.978747 117.989324 424.735242 C 114.965017 422.496943 111.997969 420.180563 109.088179 417.791309 C 106.17839 415.402054 103.331065 412.94513 100.540999 410.420537 C 97.750933 407.890738 95.028536 405.298475 92.363398 402.633337 C 89.703466 399.973405 87.111203 397.245802 84.581404 394.460942 C 82.051605 391.670875 79.594681 388.818345 77.205426 385.908556 C 74.821377 382.998767 72.504998 380.031719 70.261493 377.012617 C 68.017988 373.98831 65.852564 370.91195 63.760014 367.783536 C 61.67267 364.649917 59.6582 361.474655 57.721811 358.242134 C 55.785422 355.014819 53.932318 351.740655 52.157295 348.419644 C 50.382271 345.103837 48.690533 341.741183 47.082081 338.336886 C 45.473629 334.932588 43.948462 331.497059 42.50658 328.014682 C 41.064699 324.53751 39.711309 321.029105 38.446409 317.484264 C 37.176305 313.939422 35.994691 310.368554 34.901568 306.766453 C 33.81365 303.164353 32.809018 299.536226 31.892877 295.887277 C 30.976736 292.233123 30.154291 288.563353 29.420337 284.872762 C 28.686383 281.176965 28.04092 277.470758 27.489153 273.748935 C 26.937386 270.027111 26.47411 266.289672 26.109736 262.541822 C 25.740156 258.799177 25.464273 255.046121 25.27688 251.287861 C 25.094693 247.524394 25.000997 243.766134 25.000997 239.997462 C 25.000997 236.233996 25.094693 232.475735 25.27688 228.712269 C 25.464273 224.954008 25.740156 221.200952 26.109736 217.458308 C 26.47411 213.710457 26.937386 209.973018 27.489153 206.251195 C 28.04092 202.529371 28.686383 198.823164 29.420337 195.127367 C 30.154291 191.436776 30.976736 187.767006 31.892877 184.112852 C 32.809018 180.463903 33.81365 176.835776 34.901568 173.233676 C 35.994691 169.631575 37.176305 166.060707 38.446409 162.515865 C 39.711309 158.971024 41.064699 155.46262 42.50658 151.980242 C 43.948462 148.50307 45.473629 145.067541 47.082081 141.663244 C 48.690533 138.258946 50.382271 134.896292 52.157295 131.580486 C 53.932318 128.259474 55.785422 124.98531 57.721811 121.757995 C 59.6582 118.525474 61.67267 115.350212 63.760014 112.216593 C 65.852564 109.088179 68.017988 106.011819 70.261493 102.987512 C 72.504998 99.963205 74.821377 97.001363 77.205426 94.091574 C 79.594681 91.181784 82.051605 88.329254 84.581404 85.539188 C 87.111203 82.754327 89.703466 80.026725 92.363398 77.366792 C 95.028536 74.701654 97.750933 72.109391 100.540999 69.579592 C 103.331065 67.054999 106.17839 64.598075 109.088179 62.20882 C 111.997969 59.819566 114.965017 57.503186 117.989324 55.259682 C 121.01363 53.021382 124.089991 50.850752 127.218405 48.763408 C 130.346818 46.670858 133.527286 44.656389 136.754601 42.72 C 139.987122 40.788816 143.261285 38.930507 146.577092 37.160689 C 149.898103 35.385665 153.260758 33.693927 156.65985 32.08027 C 160.064147 30.471817 163.504881 28.94665 166.982054 27.509975 C 170.459226 26.068093 173.972835 24.714703 177.517677 23.444598 C 181.057313 22.174493 184.633387 20.998085 188.235487 19.904962 C 191.837588 18.811839 195.465715 17.807207 199.114663 16.891066 C 202.763612 15.98013 206.438587 15.15248 210.129178 14.418526 C 213.81977 13.684572 217.531182 13.044314 221.253006 12.487342 C 224.974829 11.935575 228.712269 11.477504 232.454914 11.107925 C 236.202764 10.738345 239.955819 10.462462 243.71408 10.275069 C 247.472341 10.092882 251.235807 9.999186 254.999273 9.999186 C 258.762739 9.999186 262.526206 10.092882 266.284466 10.275069 C 270.042727 10.462462 273.795783 10.738345 277.543633 11.107925 C 281.291483 11.477504 285.023717 11.935575 288.745541 12.487342 C 292.472569 13.044314 296.178777 13.684572 299.869368 14.418526 C 303.559959 15.15248 307.234935 15.98013 310.883883 16.891066 C 314.538037 17.807207 318.160959 18.811839 321.763059 19.904962 C 325.36516 20.998085 328.941233 22.174493 332.486075 23.444598 C 336.030917 24.714703 339.539321 26.068093 343.016493 27.509975 C 346.493665 28.94665 349.9344 30.471817 353.338697 32.08027 C 356.737789 33.693927 360.100443 35.385665 363.421455 37.160689 C 366.742467 38.930507 370.01663 40.788816 373.243945 42.72 C 376.471261 44.656389 379.651728 46.670858 382.780142 48.763408 C 385.908556 50.850752 388.984916 53.021382 392.009223 55.259682 C 395.03353 57.503186 398.000578 59.819566 400.910367 62.20882 C 403.820156 64.598075 406.667481 67.054999 409.457548 69.579592 C 412.247614 72.109391 414.975216 74.701654 417.635148 77.366792 C 420.295081 80.026725 422.892549 82.754327 425.417143 85.539188 C 427.946942 88.329254 430.403866 91.181784 432.79312 94.091574 C 435.182375 97.001363 437.493549 99.963205 439.737054 102.987512 C 441.980558 106.011819 444.145983 109.088179 446.238532 112.216593 C 448.331082 115.350212 450.340346 118.525474 452.276736 121.757995 C 454.213125 124.98531 456.066228 128.259474 457.841252 131.580486 C 459.616275 134.896292 461.308013 138.258946 462.916466 141.663244 C 464.524918 145.067541 466.050085 148.50307 467.491966 151.980242 C 468.933847 155.46262 470.287238 158.971024 471.557342 162.515865 C 472.822242 166.060707 474.003856 169.631575 475.096979 173.233676 C 476.190102 176.835776 477.194734 180.463903 478.105669 184.112852 C 479.021811 187.767006 479.844255 191.436776 480.578209 195.127367 C 481.317369 198.823164 481.957627 202.529371 482.509393 206.251195 C 483.06116 209.973018 483.524436 213.710457 483.894016 217.458308 C 484.263595 221.200952 484.539479 224.954008 484.721666 228.712269 C 484.909059 232.475735 484.997549 236.233996 484.997549 239.997462 Z M 484.997549 239.997462 "
     transform="matrix(0.75043, 0, 0, 0.75043, 0.375215, 0.375215)"
     id="path2" />
  <path
     fill-rule="nonzero"
     fill="rgb(0%, 0%, 0%)"
     fill-opacity="1"
     d="M 110.066406 187.121094 C 110.066406 109.40625 137.289063 70.546875 191.734375 70.546875 C 246.175781 70.546875 273.398438 109.40625 273.398438 187.121094 Z M 110.066406 187.121094 "
     id="path4" />
  <path
     fill-rule="nonzero"
     fill="rgb(0%, 0%, 0%)"
     fill-opacity="1"
     d="M 146.710938 210.496094 L 236.761719 210.496094 C 237.988281 210.496094 239.214844 210.554688 240.4375 210.675781 C 241.660156 210.796875 242.875 210.976563 244.082031 211.214844 C 245.285156 211.457031 246.476563 211.753906 247.652344 212.113281 C 248.828125 212.46875 249.984375 212.882813 251.121094 213.351563 C 252.253906 213.820313 253.363281 214.347656 254.449219 214.925781 C 255.53125 215.503906 256.585938 216.136719 257.605469 216.820313 C 258.628906 217.5 259.613281 218.234375 260.5625 219.011719 C 261.515625 219.792969 262.421875 220.617188 263.292969 221.484375 C 264.160156 222.355469 264.984375 223.265625 265.765625 224.214844 C 266.542969 225.164063 267.277344 226.148438 267.957031 227.171875 C 268.640625 228.191406 269.273438 229.246094 269.851563 230.328125 C 270.429688 231.414063 270.957031 232.523438 271.425781 233.660156 C 271.894531 234.792969 272.308594 235.949219 272.667969 237.125 C 273.023438 238.300781 273.320313 239.492188 273.5625 240.695313 C 273.800781 241.902344 273.980469 243.117188 274.101563 244.339844 C 274.222656 245.5625 274.28125 246.789063 274.28125 248.015625 C 274.28125 249.246094 274.222656 250.472656 274.101563 251.695313 C 273.980469 252.917969 273.800781 254.132813 273.5625 255.335938 C 273.320313 256.542969 273.023438 257.734375 272.667969 258.910156 C 272.308594 260.085938 271.894531 261.242188 271.425781 262.375 C 270.957031 263.511719 270.429688 264.621094 269.851563 265.703125 C 269.273438 266.789063 268.640625 267.839844 267.957031 268.863281 C 267.277344 269.886719 266.542969 270.871094 265.765625 271.820313 C 264.984375 272.769531 264.160156 273.679688 263.292969 274.550781 C 262.421875 275.417969 261.515625 276.242188 260.5625 277.023438 C 259.613281 277.800781 258.628906 278.53125 257.605469 279.214844 C 256.585938 279.898438 255.53125 280.527344 254.449219 281.109375 C 253.363281 281.6875 252.253906 282.210938 251.121094 282.683594 C 249.984375 283.152344 248.828125 283.566406 247.652344 283.921875 C 246.476563 284.28125 245.285156 284.578125 244.082031 284.816406 C 242.875 285.058594 241.660156 285.238281 240.4375 285.359375 C 239.214844 285.476563 237.988281 285.539063 236.761719 285.539063 L 146.710938 285.539063 C 145.480469 285.539063 144.253906 285.476563 143.03125 285.359375 C 141.808594 285.238281 140.59375 285.058594 139.390625 284.816406 C 138.183594 284.578125 136.992188 284.28125 135.816406 283.921875 C 134.640625 283.566406 133.484375 283.152344 132.351563 282.683594 C 131.214844 282.210938 130.105469 281.6875 129.023438 281.109375 C 127.9375 280.527344 126.886719 279.898438 125.863281 279.214844 C 124.839844 278.53125 123.855469 277.800781 122.90625 277.023438 C 121.957031 276.242188 121.046875 275.417969 120.175781 274.550781 C 119.308594 273.679688 118.484375 272.769531 117.703125 271.820313 C 116.925781 270.871094 116.195313 269.886719 115.511719 268.863281 C 114.828125 267.839844 114.199219 266.789063 113.617188 265.703125 C 113.039063 264.621094 112.515625 263.511719 112.042969 262.375 C 111.574219 261.242188 111.160156 260.085938 110.804688 258.910156 C 110.445313 257.734375 110.148438 256.542969 109.910156 255.335938 C 109.667969 254.132813 109.488281 252.917969 109.367188 251.695313 C 109.246094 250.472656 109.1875 249.246094 109.1875 248.015625 C 109.1875 246.789063 109.246094 245.5625 109.367188 244.339844 C 109.488281 243.117188 109.667969 241.902344 109.910156 240.695313 C 110.148438 239.492188 110.445313 238.300781 110.804688 237.125 C 111.160156 235.949219 111.574219 234.792969 112.042969 233.660156 C 112.515625 232.523438 113.039063 231.414063 113.617188 230.328125 C 114.199219 229.246094 114.828125 228.191406 115.511719 227.171875 C 116.195313 226.148438 116.925781 225.164063 117.703125 224.214844 C 118.484375 223.265625 119.308594 222.355469 120.175781 221.484375 C 121.046875 220.617188 121.957031 219.792969 122.90625 219.011719 C 123.855469 218.234375 124.839844 217.5 125.863281 216.820313 C 126.886719 216.136719 127.9375 215.503906 129.023438 214.925781 C 130.105469 214.347656 131.214844 213.820313 132.351563 213.351563 C 133.484375 212.882813 134.640625 212.46875 135.816406 212.113281 C 136.992188 211.753906 138.183594 211.457031 139.390625 211.214844 C 140.59375 210.976563 141.808594 210.796875 143.03125 210.675781 C 144.253906 210.554688 145.480469 210.496094 146.710938 210.496094 Z M 146.710938 210.496094 "
     id="path6" />
</svg>
